<svg xmlns="http://www.w3.org/2000/svg" xmlns:xlink="http://www.w3.org/1999/xlink" width="970" zoomAndPan="magnify" viewBox="0 0 727.5 187.499995" height="250" preserveAspectRatio="xMidYMid meet" version="1.0"><defs><g/><clipPath id="eb53398bf1"><path d="M 679 54 L 716.957031 54 L 716.957031 81.984375 L 679 81.984375 Z M 679 54 " clip-rule="nonzero"/></clipPath><clipPath id="f06fd45ffe"><path d="M 662.351562 27.382812 L 703 27.382812 L 703 72 L 662.351562 72 Z M 662.351562 27.382812 " clip-rule="nonzero"/></clipPath></defs><path fill="#9b5444" d="M 664.453125 63.359375 C 664.425781 63.320312 664.402344 63.28125 664.371094 63.25 C 664.339844 63.214844 664.308594 63.183594 664.273438 63.15625 C 664.238281 63.128906 664.203125 63.105469 664.164062 63.085938 C 664.128906 63.070312 664.089844 63.054688 664.050781 63.046875 C 664.011719 63.039062 663.976562 63.035156 663.9375 63.035156 C 663.902344 63.035156 663.863281 63.039062 663.832031 63.050781 C 663.796875 63.058594 663.761719 63.070312 663.734375 63.089844 C 663.703125 63.105469 663.675781 63.125 663.648438 63.148438 C 663.625 63.167969 663.601562 63.195312 663.582031 63.222656 C 663.5625 63.25 663.542969 63.277344 663.53125 63.308594 L 663.523438 63.320312 L 663.519531 63.332031 L 663.511719 63.359375 C 663.507812 63.367188 663.503906 63.375 663.5 63.382812 C 663.5 63.390625 663.496094 63.398438 663.496094 63.40625 L 663.488281 63.429688 C 663.488281 63.433594 663.488281 63.433594 663.488281 63.441406 L 663.484375 63.453125 L 663.480469 63.476562 C 663.480469 63.480469 663.480469 63.484375 663.480469 63.492188 L 663.480469 63.503906 C 663.460938 63.660156 663.480469 63.808594 663.527344 63.957031 C 663.574219 64.101562 663.644531 64.246094 663.738281 64.382812 C 663.828125 64.515625 663.9375 64.648438 664.054688 64.769531 C 664.117188 64.832031 664.179688 64.890625 664.242188 64.949219 L 664.265625 64.972656 L 664.285156 64.988281 C 664.292969 64.992188 664.300781 65 664.304688 65.003906 L 664.332031 65.023438 L 664.4375 65.101562 C 664.503906 65.148438 664.582031 65.203125 664.65625 65.253906 C 664.730469 65.304688 664.808594 65.351562 664.886719 65.402344 C 664.960938 65.453125 665.042969 65.5 665.121094 65.546875 C 665.199219 65.59375 665.28125 65.640625 665.359375 65.683594 C 665.402344 65.707031 665.441406 65.730469 665.480469 65.75 L 665.605469 65.816406 C 665.644531 65.839844 665.683594 65.863281 665.726562 65.882812 L 665.851562 65.945312 C 666.183594 66.113281 666.519531 66.273438 666.863281 66.417969 L 667.121094 66.527344 C 667.210938 66.5625 667.296875 66.597656 667.382812 66.632812 C 667.46875 66.667969 667.558594 66.703125 667.644531 66.734375 C 667.734375 66.769531 667.820312 66.804688 667.910156 66.835938 C 667.953125 66.851562 667.996094 66.867188 668.042969 66.882812 L 668.453125 67.035156 L 668.585938 67.085938 C 668.632812 67.105469 668.675781 67.121094 668.71875 67.136719 L 668.984375 67.234375 C 669.164062 67.296875 669.339844 67.359375 669.519531 67.417969 C 669.699219 67.480469 669.882812 67.535156 670.0625 67.59375 L 670.335938 67.679688 C 670.425781 67.710938 670.515625 67.738281 670.609375 67.765625 C 670.699219 67.796875 670.792969 67.824219 670.882812 67.851562 C 670.976562 67.878906 671.066406 67.910156 671.160156 67.9375 C 671.527344 68.050781 671.898438 68.160156 672.269531 68.28125 C 672.457031 68.34375 672.644531 68.402344 672.828125 68.464844 C 673.015625 68.527344 673.199219 68.59375 673.386719 68.660156 C 673.570312 68.722656 673.753906 68.792969 673.9375 68.863281 L 674.203125 68.960938 C 674.292969 68.992188 674.382812 69.027344 674.472656 69.058594 L 674.746094 69.15625 C 674.835938 69.1875 674.929688 69.21875 675.019531 69.253906 C 675.203125 69.320312 675.386719 69.386719 675.574219 69.457031 C 675.757812 69.527344 675.941406 69.601562 676.121094 69.679688 C 676.214844 69.71875 676.304688 69.757812 676.394531 69.796875 C 676.441406 69.820312 676.484375 69.839844 676.53125 69.859375 C 676.574219 69.882812 676.621094 69.902344 676.664062 69.925781 C 677.023438 70.101562 677.371094 70.296875 677.6875 70.53125 L 677.65625 70.59375 C 677.308594 70.425781 676.949219 70.285156 676.582031 70.160156 C 676.21875 70.035156 675.84375 69.925781 675.472656 69.828125 L 674.34375 69.53125 C 674.25 69.503906 674.15625 69.480469 674.0625 69.453125 L 673.78125 69.371094 C 673.597656 69.316406 673.410156 69.257812 673.222656 69.207031 C 672.480469 68.992188 671.730469 68.792969 670.980469 68.585938 C 670.605469 68.480469 670.230469 68.375 669.859375 68.261719 C 669.484375 68.148438 669.117188 68.03125 668.746094 67.902344 L 668.472656 67.800781 C 668.425781 67.785156 668.382812 67.765625 668.335938 67.75 L 668.203125 67.695312 C 668.019531 67.621094 667.839844 67.558594 667.65625 67.488281 C 667.292969 67.347656 666.933594 67.195312 666.582031 67.03125 C 666.226562 66.867188 665.878906 66.691406 665.539062 66.496094 L 665.410156 66.425781 C 665.371094 66.402344 665.328125 66.375 665.285156 66.351562 C 665.203125 66.300781 665.117188 66.25 665.035156 66.195312 C 664.953125 66.144531 664.871094 66.09375 664.792969 66.035156 C 664.710938 65.980469 664.628906 65.925781 664.550781 65.867188 C 664.472656 65.808594 664.394531 65.753906 664.316406 65.691406 C 664.242188 65.628906 664.164062 65.570312 664.089844 65.503906 L 663.976562 65.410156 L 663.949219 65.382812 C 663.941406 65.375 663.933594 65.367188 663.921875 65.359375 C 663.90625 65.339844 663.886719 65.320312 663.871094 65.304688 C 663.804688 65.230469 663.738281 65.15625 663.675781 65.082031 C 663.554688 64.929688 663.441406 64.765625 663.347656 64.589844 C 663.257812 64.414062 663.183594 64.222656 663.148438 64.027344 C 663.113281 63.828125 663.117188 63.621094 663.167969 63.425781 C 663.183594 63.378906 663.195312 63.328125 663.21875 63.28125 C 663.230469 63.257812 663.242188 63.234375 663.253906 63.214844 L 663.273438 63.179688 L 663.34375 63.085938 L 663.398438 63.03125 C 663.433594 62.996094 663.476562 62.964844 663.519531 62.9375 C 663.5625 62.910156 663.609375 62.886719 663.660156 62.871094 C 663.710938 62.855469 663.761719 62.847656 663.8125 62.84375 C 663.867188 62.839844 663.917969 62.839844 663.96875 62.851562 C 664.019531 62.859375 664.070312 62.875 664.117188 62.894531 C 664.164062 62.914062 664.207031 62.941406 664.25 62.972656 C 664.292969 63.003906 664.328125 63.039062 664.363281 63.078125 C 664.429688 63.152344 664.480469 63.242188 664.519531 63.335938 Z M 664.453125 63.359375 " fill-opacity="1" fill-rule="nonzero"/><path fill="#9b5444" d="M 666.859375 59.617188 C 666.84375 59.574219 666.828125 59.53125 666.804688 59.488281 C 666.785156 59.449219 666.761719 59.410156 666.734375 59.375 C 666.707031 59.34375 666.679688 59.3125 666.644531 59.285156 C 666.613281 59.257812 666.582031 59.234375 666.546875 59.21875 C 666.511719 59.199219 666.472656 59.1875 666.4375 59.179688 C 666.402344 59.171875 666.363281 59.167969 666.328125 59.167969 C 666.292969 59.167969 666.257812 59.171875 666.226562 59.179688 C 666.191406 59.191406 666.160156 59.203125 666.132812 59.21875 C 666.101562 59.234375 666.074219 59.253906 666.046875 59.277344 C 666.023438 59.300781 666 59.320312 665.976562 59.347656 L 665.960938 59.371094 L 665.945312 59.390625 C 665.941406 59.398438 665.9375 59.40625 665.929688 59.414062 C 665.925781 59.421875 665.921875 59.429688 665.917969 59.433594 L 665.910156 59.453125 C 665.90625 59.457031 665.90625 59.460938 665.902344 59.464844 L 665.890625 59.5 C 665.886719 59.503906 665.886719 59.507812 665.886719 59.511719 L 665.878906 59.527344 C 665.828125 59.671875 665.808594 59.820312 665.820312 59.976562 C 665.828125 60.128906 665.863281 60.285156 665.921875 60.4375 C 665.980469 60.59375 666.050781 60.746094 666.140625 60.894531 C 666.183594 60.96875 666.230469 61.039062 666.277344 61.113281 L 666.296875 61.136719 L 666.3125 61.160156 C 666.316406 61.167969 666.320312 61.171875 666.328125 61.179688 L 666.347656 61.203125 L 666.429688 61.304688 C 666.484375 61.367188 666.546875 61.4375 666.609375 61.503906 C 666.667969 61.570312 666.734375 61.636719 666.796875 61.703125 C 666.855469 61.773438 666.925781 61.835938 666.988281 61.898438 C 667.054688 61.964844 667.121094 62.027344 667.1875 62.089844 C 667.222656 62.121094 667.253906 62.15625 667.289062 62.183594 L 667.394531 62.277344 C 667.429688 62.308594 667.460938 62.339844 667.496094 62.371094 L 667.601562 62.460938 C 667.886719 62.703125 668.175781 62.9375 668.472656 63.160156 L 668.699219 63.328125 C 668.777344 63.382812 668.851562 63.441406 668.925781 63.492188 C 669.003906 63.546875 669.082031 63.601562 669.15625 63.65625 C 669.234375 63.710938 669.3125 63.761719 669.390625 63.816406 C 669.429688 63.839844 669.46875 63.867188 669.507812 63.894531 L 669.871094 64.140625 L 669.988281 64.222656 C 670.027344 64.25 670.066406 64.277344 670.105469 64.300781 L 670.339844 64.457031 C 670.5 64.5625 670.65625 64.664062 670.816406 64.765625 C 670.976562 64.867188 671.140625 64.964844 671.300781 65.066406 L 671.542969 65.214844 C 671.625 65.265625 671.707031 65.3125 671.789062 65.363281 C 671.871094 65.414062 671.953125 65.460938 672.039062 65.511719 C 672.121094 65.558594 672.203125 65.609375 672.285156 65.660156 C 672.617188 65.859375 672.949219 66.054688 673.28125 66.261719 C 673.449219 66.363281 673.617188 66.464844 673.78125 66.570312 C 673.945312 66.675781 674.109375 66.78125 674.273438 66.890625 C 674.441406 66.996094 674.601562 67.109375 674.761719 67.222656 L 674.996094 67.378906 C 675.078125 67.429688 675.15625 67.484375 675.234375 67.539062 L 675.476562 67.699219 C 675.558594 67.75 675.640625 67.804688 675.722656 67.859375 C 675.882812 67.964844 676.046875 68.074219 676.210938 68.1875 C 676.371094 68.300781 676.53125 68.414062 676.691406 68.53125 C 676.769531 68.59375 676.851562 68.652344 676.925781 68.714844 C 676.964844 68.746094 677.007812 68.773438 677.042969 68.804688 C 677.082031 68.835938 677.121094 68.871094 677.160156 68.902344 C 677.464844 69.15625 677.753906 69.429688 678.007812 69.734375 L 677.964844 69.789062 C 677.667969 69.542969 677.351562 69.316406 677.023438 69.109375 C 676.699219 68.902344 676.363281 68.707031 676.023438 68.519531 L 675 67.964844 C 674.914062 67.917969 674.828125 67.871094 674.746094 67.824219 L 674.492188 67.679688 C 674.324219 67.578125 674.15625 67.480469 673.988281 67.382812 C 673.316406 66.996094 672.632812 66.625 671.957031 66.246094 C 671.617188 66.058594 671.277344 65.863281 670.945312 65.667969 C 670.609375 65.46875 670.277344 65.261719 669.953125 65.050781 L 669.710938 64.886719 C 669.667969 64.859375 669.628906 64.832031 669.589844 64.804688 L 669.46875 64.71875 C 669.3125 64.605469 669.148438 64.503906 668.992188 64.390625 C 668.671875 64.164062 668.359375 63.933594 668.054688 63.6875 C 667.75 63.445312 667.453125 63.191406 667.167969 62.921875 L 667.0625 62.824219 C 667.027344 62.789062 666.992188 62.753906 666.957031 62.71875 C 666.890625 62.652344 666.820312 62.582031 666.753906 62.511719 C 666.6875 62.441406 666.617188 62.371094 666.554688 62.296875 C 666.488281 62.222656 666.421875 62.152344 666.359375 62.074219 C 666.296875 62 666.234375 61.925781 666.175781 61.847656 C 666.117188 61.769531 666.054688 61.695312 665.996094 61.613281 L 665.910156 61.492188 L 665.890625 61.464844 C 665.882812 61.453125 665.878906 61.441406 665.871094 61.429688 C 665.859375 61.410156 665.847656 61.386719 665.832031 61.367188 C 665.785156 61.28125 665.738281 61.191406 665.699219 61.105469 C 665.613281 60.925781 665.542969 60.738281 665.496094 60.546875 C 665.449219 60.355469 665.421875 60.152344 665.433594 59.953125 C 665.449219 59.753906 665.5 59.554688 665.597656 59.375 C 665.621094 59.332031 665.648438 59.285156 665.683594 59.246094 C 665.699219 59.226562 665.714844 59.207031 665.734375 59.1875 L 665.761719 59.164062 L 665.773438 59.148438 L 665.789062 59.136719 L 665.816406 59.109375 L 665.847656 59.089844 L 665.863281 59.078125 L 665.882812 59.066406 L 665.914062 59.046875 C 665.960938 59.019531 666.007812 59 666.054688 58.984375 C 666.105469 58.96875 666.15625 58.957031 666.207031 58.953125 C 666.261719 58.949219 666.3125 58.953125 666.363281 58.960938 C 666.414062 58.972656 666.464844 58.984375 666.511719 59.007812 C 666.558594 59.027344 666.605469 59.054688 666.644531 59.085938 C 666.6875 59.117188 666.722656 59.152344 666.757812 59.191406 C 666.789062 59.230469 666.816406 59.273438 666.84375 59.320312 C 666.890625 59.410156 666.917969 59.507812 666.929688 59.609375 Z M 666.859375 59.617188 " fill-opacity="1" fill-rule="nonzero"/><path fill="#9b5444" d="M 678.023438 69.753906 C 677.972656 69.933594 677.945312 70.109375 677.941406 70.273438 C 677.941406 70.359375 677.945312 70.4375 677.957031 70.515625 C 677.96875 70.59375 677.984375 70.667969 678.003906 70.742188 C 678.027344 70.8125 678.050781 70.882812 678.082031 70.949219 C 678.113281 71.011719 678.144531 71.074219 678.183594 71.132812 C 678.257812 71.25 678.34375 71.347656 678.4375 71.421875 C 678.53125 71.496094 678.625 71.542969 678.710938 71.5625 C 678.796875 71.582031 678.875 71.582031 678.953125 71.566406 C 679.035156 71.546875 679.125 71.511719 679.21875 71.453125 C 679.265625 71.425781 679.316406 71.390625 679.367188 71.351562 L 679.382812 71.335938 L 679.402344 71.324219 C 679.414062 71.3125 679.425781 71.304688 679.433594 71.292969 L 679.464844 71.265625 C 679.476562 71.257812 679.484375 71.246094 679.496094 71.238281 C 679.570312 71.160156 679.625 71.082031 679.660156 71 C 679.699219 70.917969 679.71875 70.828125 679.722656 70.730469 C 679.726562 70.71875 679.726562 70.703125 679.726562 70.691406 C 679.726562 70.679688 679.726562 70.664062 679.722656 70.652344 C 679.722656 70.625 679.71875 70.601562 679.71875 70.574219 C 679.707031 70.519531 679.699219 70.460938 679.679688 70.40625 C 679.644531 70.289062 679.589844 70.175781 679.519531 70.066406 C 679.449219 69.960938 679.363281 69.863281 679.265625 69.777344 L 679.226562 69.75 L 679.1875 69.71875 C 679.175781 69.710938 679.164062 69.703125 679.148438 69.695312 C 679.132812 69.6875 679.121094 69.675781 679.105469 69.667969 C 679.050781 69.636719 678.992188 69.609375 678.929688 69.589844 C 678.867188 69.570312 678.800781 69.558594 678.730469 69.554688 C 678.65625 69.546875 678.585938 69.554688 678.507812 69.566406 C 678.429688 69.582031 678.347656 69.601562 678.269531 69.636719 C 678.1875 69.667969 678.105469 69.710938 678.023438 69.753906 L 677.96875 69.707031 C 678.085938 69.566406 678.226562 69.4375 678.390625 69.347656 C 678.554688 69.257812 678.746094 69.207031 678.9375 69.207031 C 679.125 69.210938 679.3125 69.257812 679.484375 69.34375 C 679.652344 69.425781 679.804688 69.542969 679.9375 69.675781 C 680.066406 69.8125 680.175781 69.96875 680.253906 70.140625 C 680.332031 70.3125 680.382812 70.5 680.398438 70.6875 C 680.410156 70.878906 680.382812 71.074219 680.3125 71.25 C 680.277344 71.339844 680.234375 71.425781 680.183594 71.507812 C 680.128906 71.585938 680.070312 71.660156 680.003906 71.730469 C 679.9375 71.796875 679.867188 71.859375 679.792969 71.914062 C 679.71875 71.972656 679.636719 72.023438 679.554688 72.070312 C 679.390625 72.160156 679.203125 72.222656 679.011719 72.238281 C 678.820312 72.257812 678.625 72.21875 678.449219 72.140625 C 678.363281 72.101562 678.28125 72.050781 678.203125 71.992188 C 678.128906 71.933594 678.0625 71.863281 678 71.792969 C 677.878906 71.648438 677.785156 71.480469 677.722656 71.300781 C 677.660156 71.125 677.625 70.941406 677.621094 70.753906 C 677.617188 70.566406 677.648438 70.378906 677.707031 70.199219 C 677.765625 70.023438 677.851562 69.859375 677.964844 69.710938 Z M 678.023438 69.753906 " fill-opacity="1" fill-rule="nonzero"/><g clip-path="url(#eb53398bf1)"><path fill="#9b5444" d="M 679.636719 71.59375 C 680.328125 71.835938 680.984375 72.152344 681.625 72.492188 C 681.949219 72.664062 682.261719 72.839844 682.574219 73.023438 C 682.886719 73.207031 683.195312 73.398438 683.5 73.59375 C 684.113281 73.980469 684.710938 74.382812 685.304688 74.796875 C 685.601562 75.003906 685.898438 75.210938 686.1875 75.421875 C 686.480469 75.632812 686.773438 75.847656 687.0625 76.058594 C 688.222656 76.917969 689.363281 77.796875 690.503906 78.671875 C 691.074219 79.109375 691.644531 79.542969 692.21875 79.964844 C 692.507812 80.175781 692.796875 80.378906 693.089844 80.578125 C 693.234375 80.671875 693.382812 80.769531 693.527344 80.859375 C 693.675781 80.949219 693.820312 81.035156 693.964844 81.105469 L 693.910156 81.082031 C 694.078125 81.136719 694.253906 81.171875 694.421875 81.183594 C 694.59375 81.199219 694.761719 81.191406 694.902344 81.15625 C 694.976562 81.140625 695.039062 81.117188 695.09375 81.085938 C 695.144531 81.058594 695.1875 81.027344 695.222656 80.988281 C 695.257812 80.949219 695.285156 80.90625 695.304688 80.851562 C 695.328125 80.800781 695.339844 80.738281 695.347656 80.667969 L 695.351562 80.648438 L 695.359375 80.617188 C 695.371094 80.5625 695.375 80.507812 695.367188 80.445312 C 695.359375 80.382812 695.339844 80.3125 695.308594 80.238281 C 695.25 80.09375 695.148438 79.9375 695.03125 79.789062 C 694.910156 79.640625 694.769531 79.496094 694.625 79.355469 C 694.476562 79.214844 694.316406 79.082031 694.152344 78.953125 C 693.828125 78.691406 693.480469 78.449219 693.121094 78.214844 C 692.761719 77.984375 692.394531 77.761719 692.023438 77.546875 C 691.277344 77.113281 690.507812 76.710938 689.730469 76.324219 C 689.34375 76.132812 688.953125 75.945312 688.558594 75.757812 C 688.167969 75.570312 687.773438 75.386719 687.375 75.207031 C 686.980469 75.027344 686.582031 74.847656 686.183594 74.671875 C 685.785156 74.492188 685.386719 74.316406 684.984375 74.136719 C 684.882812 74.089844 684.78125 74.042969 684.679688 73.996094 C 684.628906 73.972656 684.578125 73.949219 684.523438 73.925781 C 684.472656 73.898438 684.417969 73.871094 684.359375 73.839844 L 684.34375 73.832031 C 684.34375 73.832031 684.355469 73.839844 684.339844 73.832031 L 684.292969 73.808594 C 684.265625 73.792969 684.238281 73.777344 684.210938 73.765625 C 684.15625 73.734375 684.101562 73.703125 684.050781 73.671875 C 683.941406 73.605469 683.835938 73.535156 683.730469 73.453125 C 683.625 73.371094 683.519531 73.28125 683.414062 73.160156 C 683.359375 73.097656 683.308594 73.027344 683.257812 72.9375 C 683.210938 72.847656 683.164062 72.738281 683.148438 72.601562 C 683.140625 72.53125 683.136719 72.460938 683.148438 72.386719 C 683.160156 72.3125 683.179688 72.242188 683.207031 72.179688 C 683.234375 72.113281 683.265625 72.058594 683.300781 72.007812 C 683.320312 71.984375 683.335938 71.960938 683.359375 71.933594 C 683.386719 71.910156 683.355469 71.933594 683.425781 71.871094 C 683.453125 71.847656 683.464844 71.835938 683.484375 71.824219 C 683.542969 71.785156 683.589844 71.761719 683.632812 71.742188 C 683.679688 71.71875 683.71875 71.703125 683.757812 71.691406 C 683.839844 71.664062 683.914062 71.644531 683.988281 71.632812 C 684.128906 71.605469 684.265625 71.59375 684.394531 71.589844 C 684.523438 71.585938 684.648438 71.589844 684.773438 71.601562 C 684.894531 71.609375 685.019531 71.625 685.125 71.636719 C 685.238281 71.648438 685.347656 71.664062 685.457031 71.679688 C 685.679688 71.710938 685.902344 71.742188 686.121094 71.777344 C 686.34375 71.816406 686.5625 71.855469 686.785156 71.898438 C 687.664062 72.070312 688.539062 72.308594 689.390625 72.621094 C 690.238281 72.933594 691.0625 73.328125 691.84375 73.792969 C 691.941406 73.851562 692.035156 73.910156 692.132812 73.96875 C 692.230469 74.03125 692.324219 74.09375 692.421875 74.15625 C 692.46875 74.1875 692.515625 74.21875 692.5625 74.25 L 692.699219 74.347656 C 692.789062 74.410156 692.882812 74.472656 692.972656 74.539062 C 693.335938 74.796875 693.691406 75.058594 694.042969 75.324219 C 694.746094 75.859375 695.433594 76.402344 696.121094 76.933594 C 696.808594 77.464844 697.503906 77.980469 698.214844 78.460938 C 698.570312 78.703125 698.929688 78.933594 699.296875 79.152344 C 699.664062 79.375 700.035156 79.589844 700.414062 79.792969 C 701.167969 80.203125 701.9375 80.570312 702.726562 80.875 C 703.121094 81.027344 703.523438 81.164062 703.925781 81.28125 C 704.328125 81.394531 704.734375 81.488281 705.144531 81.558594 C 705.960938 81.691406 706.789062 81.710938 707.585938 81.570312 C 707.980469 81.5 708.367188 81.386719 708.738281 81.234375 C 709.109375 81.082031 709.464844 80.890625 709.796875 80.664062 C 710.128906 80.433594 710.4375 80.171875 710.726562 79.878906 C 710.761719 79.839844 710.792969 79.808594 710.824219 79.777344 C 710.855469 79.742188 710.886719 79.703125 710.917969 79.664062 L 710.941406 79.636719 L 710.96875 79.605469 L 711.015625 79.546875 L 711.066406 79.484375 L 711.113281 79.421875 C 711.242188 79.257812 711.367188 79.089844 711.488281 78.917969 C 711.609375 78.742188 711.726562 78.566406 711.839844 78.390625 C 711.953125 78.210938 712.058594 78.027344 712.167969 77.84375 C 712.378906 77.476562 712.574219 77.097656 712.765625 76.710938 C 712.953125 76.328125 713.132812 75.9375 713.304688 75.539062 C 713.390625 75.339844 713.472656 75.140625 713.558594 74.941406 L 713.679688 74.640625 L 713.746094 74.480469 L 713.761719 74.441406 L 713.78125 74.402344 L 713.820312 74.320312 L 713.964844 74.019531 L 714.109375 73.722656 L 714.402344 73.132812 C 714.59375 72.742188 714.785156 72.351562 714.96875 71.960938 C 715.148438 71.570312 715.320312 71.179688 715.472656 70.78125 C 715.625 70.386719 715.757812 69.984375 715.867188 69.578125 C 715.894531 69.476562 715.917969 69.375 715.945312 69.273438 L 715.980469 69.121094 L 716.011719 68.960938 C 716.054688 68.753906 716.089844 68.558594 716.113281 68.355469 C 716.160156 67.949219 716.15625 67.542969 716.109375 67.140625 C 716.0625 66.734375 715.96875 66.332031 715.835938 65.941406 C 715.707031 65.546875 715.539062 65.164062 715.34375 64.789062 C 715.148438 64.417969 714.933594 64.050781 714.699219 63.691406 C 714.464844 63.335938 714.214844 62.984375 713.957031 62.632812 C 713.441406 61.9375 712.898438 61.25 712.375 60.542969 C 712.113281 60.1875 711.855469 59.824219 711.613281 59.453125 L 711.519531 59.3125 L 711.433594 59.167969 C 711.371094 59.074219 711.316406 58.976562 711.257812 58.886719 C 711.148438 58.699219 711.035156 58.515625 710.917969 58.335938 C 710.6875 57.972656 710.441406 57.617188 710.179688 57.28125 C 709.917969 56.949219 709.632812 56.632812 709.324219 56.34375 C 709.015625 56.058594 708.679688 55.804688 708.316406 55.601562 C 708.136719 55.5 707.949219 55.410156 707.753906 55.335938 C 707.660156 55.296875 707.5625 55.261719 707.460938 55.230469 L 707.386719 55.207031 L 707.316406 55.1875 C 707.292969 55.179688 707.265625 55.175781 707.242188 55.171875 C 707.21875 55.167969 707.195312 55.160156 707.167969 55.15625 C 706.761719 55.082031 706.339844 55.074219 705.917969 55.113281 C 705.5 55.152344 705.078125 55.238281 704.664062 55.351562 C 704.25 55.460938 703.839844 55.601562 703.4375 55.757812 C 703.035156 55.917969 702.636719 56.089844 702.242188 56.273438 C 701.453125 56.644531 700.6875 57.058594 699.914062 57.472656 L 699.820312 57.308594 C 700.585938 56.878906 701.351562 56.453125 702.140625 56.066406 C 702.535156 55.875 702.933594 55.695312 703.34375 55.53125 C 703.75 55.363281 704.167969 55.214844 704.589844 55.09375 C 705.015625 54.976562 705.449219 54.882812 705.890625 54.835938 C 706.328125 54.789062 706.777344 54.785156 707.21875 54.863281 C 707.246094 54.867188 707.273438 54.871094 707.300781 54.878906 C 707.328125 54.882812 707.359375 54.886719 707.386719 54.894531 L 707.464844 54.917969 L 707.546875 54.941406 C 707.652344 54.972656 707.757812 55.007812 707.863281 55.046875 C 708.070312 55.125 708.273438 55.21875 708.46875 55.324219 C 708.859375 55.539062 709.21875 55.804688 709.546875 56.097656 C 709.875 56.394531 710.171875 56.722656 710.449219 57.066406 C 710.726562 57.410156 710.980469 57.769531 711.21875 58.136719 C 711.339844 58.320312 711.457031 58.503906 711.570312 58.691406 C 711.628906 58.785156 711.6875 58.878906 711.746094 58.96875 L 711.832031 59.105469 L 711.921875 59.242188 C 712.164062 59.605469 712.421875 59.957031 712.683594 60.308594 C 713.210938 61.003906 713.761719 61.683594 714.289062 62.382812 C 714.550781 62.734375 714.808594 63.089844 715.054688 63.457031 C 715.296875 63.820312 715.527344 64.195312 715.734375 64.585938 C 715.9375 64.972656 716.121094 65.375 716.265625 65.792969 C 716.40625 66.210938 716.511719 66.640625 716.566406 67.082031 C 716.625 67.519531 716.628906 67.964844 716.582031 68.402344 C 716.558594 68.621094 716.523438 68.839844 716.476562 69.054688 C 716.4375 69.269531 716.386719 69.488281 716.332031 69.699219 C 716.222656 70.125 716.085938 70.542969 715.929688 70.953125 C 715.773438 71.363281 715.601562 71.769531 715.421875 72.167969 C 715.238281 72.566406 715.046875 72.960938 714.855469 73.351562 C 714.664062 73.746094 714.472656 74.140625 714.289062 74.535156 L 714.253906 74.609375 L 714.234375 74.644531 L 714.222656 74.683594 L 714.160156 74.832031 L 714.035156 75.136719 C 713.953125 75.339844 713.871094 75.542969 713.785156 75.742188 C 713.613281 76.148438 713.433594 76.546875 713.242188 76.941406 C 712.863281 77.730469 712.4375 78.503906 711.9375 79.226562 C 711.8125 79.40625 711.679688 79.582031 711.546875 79.757812 L 711.496094 79.820312 L 711.445312 79.886719 C 711.410156 79.929688 711.378906 79.972656 711.339844 80.015625 C 711.304688 80.058594 711.269531 80.101562 711.234375 80.140625 C 711.195312 80.183594 711.15625 80.222656 711.121094 80.261719 C 710.8125 80.578125 710.476562 80.867188 710.113281 81.117188 C 709.75 81.371094 709.363281 81.585938 708.953125 81.753906 C 708.546875 81.921875 708.121094 82.046875 707.6875 82.125 C 707.25 82.203125 706.808594 82.238281 706.371094 82.234375 C 705.929688 82.234375 705.488281 82.191406 705.054688 82.125 C 704.1875 81.984375 703.339844 81.734375 702.519531 81.417969 C 701.699219 81.105469 700.90625 80.726562 700.132812 80.308594 C 699.75 80.101562 699.367188 79.882812 698.992188 79.65625 C 698.617188 79.433594 698.246094 79.195312 697.882812 78.949219 C 697.15625 78.460938 696.453125 77.9375 695.757812 77.40625 C 695.0625 76.871094 694.378906 76.328125 693.679688 75.800781 C 693.332031 75.539062 692.980469 75.277344 692.625 75.027344 C 692.445312 74.898438 692.269531 74.773438 692.085938 74.652344 C 691.996094 74.59375 691.90625 74.535156 691.8125 74.476562 C 691.722656 74.417969 691.628906 74.363281 691.535156 74.304688 C 690.785156 73.859375 689.996094 73.484375 689.179688 73.183594 C 688.363281 72.882812 687.519531 72.652344 686.667969 72.484375 C 686.453125 72.441406 686.238281 72.402344 686.023438 72.367188 C 685.808594 72.332031 685.59375 72.296875 685.375 72.269531 C 685.269531 72.253906 685.160156 72.238281 685.050781 72.226562 C 684.945312 72.210938 684.835938 72.199219 684.730469 72.191406 C 684.625 72.183594 684.515625 72.179688 684.410156 72.183594 C 684.304688 72.1875 684.199219 72.195312 684.097656 72.214844 C 684.046875 72.226562 683.996094 72.238281 683.949219 72.253906 C 683.925781 72.261719 683.902344 72.269531 683.878906 72.28125 C 683.859375 72.289062 683.835938 72.300781 683.820312 72.3125 C 683.816406 72.316406 683.8125 72.320312 683.8125 72.320312 C 683.816406 72.316406 683.804688 72.324219 683.804688 72.328125 C 683.796875 72.335938 683.789062 72.34375 683.785156 72.351562 C 683.773438 72.371094 683.761719 72.390625 683.753906 72.410156 C 683.738281 72.445312 683.730469 72.488281 683.734375 72.527344 C 683.746094 72.613281 683.800781 72.699219 683.863281 72.773438 C 683.929688 72.851562 684.007812 72.921875 684.09375 72.984375 C 684.175781 73.050781 684.265625 73.109375 684.355469 73.164062 C 684.402344 73.191406 684.449219 73.21875 684.496094 73.242188 C 684.519531 73.257812 684.542969 73.269531 684.566406 73.28125 L 684.601562 73.300781 C 684.605469 73.300781 684.613281 73.304688 684.621094 73.308594 L 684.640625 73.320312 C 684.734375 73.371094 684.832031 73.417969 684.929688 73.460938 C 685.027344 73.507812 685.128906 73.554688 685.226562 73.597656 C 685.625 73.78125 686.023438 73.957031 686.425781 74.136719 C 686.824219 74.316406 687.222656 74.496094 687.621094 74.679688 C 688.015625 74.863281 688.414062 75.046875 688.808594 75.238281 C 689.203125 75.425781 689.597656 75.617188 689.988281 75.8125 C 690.773438 76.207031 691.546875 76.617188 692.308594 77.058594 C 692.6875 77.277344 693.0625 77.507812 693.429688 77.75 C 693.796875 77.992188 694.15625 78.246094 694.5 78.523438 C 694.671875 78.660156 694.839844 78.804688 695.003906 78.957031 C 695.164062 79.113281 695.316406 79.273438 695.457031 79.449219 C 695.597656 79.628906 695.722656 79.820312 695.8125 80.035156 C 695.855469 80.144531 695.890625 80.261719 695.902344 80.382812 C 695.917969 80.5 695.910156 80.625 695.882812 80.746094 L 695.882812 80.734375 C 695.871094 80.84375 695.84375 80.953125 695.800781 81.058594 C 695.753906 81.164062 695.691406 81.265625 695.613281 81.351562 C 695.535156 81.4375 695.4375 81.507812 695.339844 81.558594 C 695.238281 81.613281 695.128906 81.648438 695.023438 81.671875 C 694.804688 81.722656 694.585938 81.726562 694.375 81.707031 C 694.160156 81.6875 693.949219 81.644531 693.746094 81.578125 L 693.730469 81.570312 C 693.566406 81.488281 693.40625 81.394531 693.253906 81.300781 C 693.097656 81.203125 692.945312 81.101562 692.796875 81 C 692.5 80.796875 692.207031 80.585938 691.917969 80.371094 C 691.335938 79.941406 690.769531 79.5 690.199219 79.058594 C 689.066406 78.175781 687.933594 77.285156 686.789062 76.421875 C 686.214844 75.988281 685.636719 75.5625 685.050781 75.148438 C 684.46875 74.730469 683.878906 74.324219 683.277344 73.933594 C 682.675781 73.542969 682.066406 73.167969 681.441406 72.824219 C 680.816406 72.480469 680.175781 72.167969 679.511719 71.921875 Z M 679.636719 71.59375 " fill-opacity="1" fill-rule="nonzero"/></g><g clip-path="url(#f06fd45ffe)"><path fill="#9b5444" d="M 679.539062 42.816406 C 679.554688 42.59375 679.535156 42.375 679.503906 42.15625 C 679.472656 41.9375 679.421875 41.71875 679.363281 41.507812 C 679.238281 41.078125 679.070312 40.667969 678.867188 40.273438 C 678.460938 39.484375 677.910156 38.777344 677.25 38.1875 C 676.921875 37.894531 676.566406 37.628906 676.191406 37.398438 C 675.816406 37.164062 675.417969 36.96875 675.011719 36.800781 C 674.808594 36.71875 674.597656 36.644531 674.390625 36.578125 C 674.179688 36.511719 673.964844 36.453125 673.753906 36.402344 L 673.589844 36.363281 L 673.429688 36.328125 L 673.347656 36.3125 L 673.261719 36.296875 L 673.179688 36.277344 L 673.09375 36.257812 C 672.871094 36.203125 672.648438 36.128906 672.4375 36.035156 C 672.222656 35.9375 672.019531 35.824219 671.828125 35.6875 C 671.636719 35.554688 671.457031 35.398438 671.292969 35.230469 C 670.964844 34.898438 670.699219 34.511719 670.46875 34.117188 C 670.238281 33.722656 670.042969 33.3125 669.855469 32.902344 L 669.824219 32.828125 C 669.816406 32.816406 669.8125 32.804688 669.808594 32.792969 L 669.789062 32.761719 L 669.714844 32.617188 C 669.660156 32.519531 669.609375 32.421875 669.554688 32.324219 C 669.449219 32.132812 669.335938 31.945312 669.21875 31.765625 C 669.097656 31.582031 668.976562 31.40625 668.84375 31.234375 C 668.710938 31.066406 668.570312 30.90625 668.421875 30.765625 C 668.273438 30.621094 668.113281 30.492188 667.945312 30.394531 C 667.859375 30.34375 667.773438 30.304688 667.6875 30.269531 C 667.597656 30.238281 667.511719 30.214844 667.421875 30.203125 C 667.246094 30.179688 667.070312 30.203125 666.898438 30.261719 L 666.867188 30.273438 C 666.855469 30.277344 666.847656 30.285156 666.835938 30.289062 L 666.804688 30.300781 L 666.773438 30.316406 C 666.761719 30.320312 666.75 30.324219 666.738281 30.332031 L 666.707031 30.347656 C 666.683594 30.359375 666.660156 30.371094 666.636719 30.386719 C 666.546875 30.433594 666.457031 30.488281 666.367188 30.542969 C 666.019531 30.769531 665.703125 31.050781 665.425781 31.367188 C 665.144531 31.679688 664.898438 32.03125 664.683594 32.402344 C 664.46875 32.769531 664.28125 33.160156 664.113281 33.5625 C 663.785156 34.363281 663.542969 35.207031 663.359375 36.0625 C 663.171875 36.917969 663.042969 37.789062 662.960938 38.664062 C 662.921875 39.101562 662.890625 39.539062 662.875 39.976562 C 662.859375 40.417969 662.855469 40.855469 662.871094 41.285156 C 662.875 41.339844 662.875 41.394531 662.878906 41.445312 L 662.886719 41.605469 C 662.894531 41.714844 662.902344 41.824219 662.914062 41.933594 C 662.929688 42.148438 662.953125 42.367188 662.980469 42.582031 C 663.035156 43.015625 663.101562 43.445312 663.1875 43.875 C 663.355469 44.730469 663.582031 45.578125 663.855469 46.410156 C 664.398438 48.078125 665.117188 49.691406 665.949219 51.246094 C 666.367188 52.023438 666.808594 52.785156 667.277344 53.535156 C 667.511719 53.910156 667.75 54.28125 667.992188 54.652344 C 668.238281 55.019531 668.488281 55.386719 668.742188 55.746094 C 669.757812 57.195312 670.847656 58.59375 671.992188 59.949219 C 673.136719 61.300781 674.335938 62.609375 675.582031 63.875 C 676.203125 64.503906 676.835938 65.125 677.484375 65.730469 C 678.128906 66.339844 678.785156 66.933594 679.457031 67.507812 C 679.792969 67.796875 680.128906 68.082031 680.472656 68.359375 C 680.8125 68.636719 681.15625 68.90625 681.507812 69.167969 C 681.683594 69.296875 681.859375 69.425781 682.035156 69.546875 C 682.210938 69.667969 682.386719 69.785156 682.558594 69.886719 C 682.601562 69.914062 682.644531 69.9375 682.683594 69.957031 C 682.726562 69.980469 682.765625 70 682.796875 70.015625 C 682.816406 70.023438 682.832031 70.03125 682.84375 70.035156 C 682.855469 70.039062 682.863281 70.042969 682.863281 70.042969 C 682.859375 70.042969 682.855469 70.039062 682.847656 70.039062 C 682.835938 70.035156 682.816406 70.03125 682.78125 70.03125 C 682.746094 70.035156 682.6875 70.03125 682.578125 70.074219 C 682.46875 70.109375 682.308594 70.261719 682.265625 70.394531 C 682.21875 70.53125 682.230469 70.601562 682.230469 70.644531 C 682.238281 70.691406 682.242188 70.710938 682.246094 70.722656 C 682.253906 70.742188 682.25 70.730469 682.242188 70.714844 L 682.230469 70.675781 L 682.171875 70.515625 C 682.128906 70.410156 682.089844 70.304688 682.050781 70.199219 C 681.898438 69.777344 681.746094 69.351562 681.597656 68.925781 C 681.449219 68.496094 681.308594 68.070312 681.171875 67.636719 C 681.03125 67.207031 680.898438 66.777344 680.773438 66.34375 C 680.644531 65.90625 680.523438 65.472656 680.40625 65.035156 C 679.941406 63.285156 679.574219 61.503906 679.324219 59.703125 C 679.265625 59.253906 679.210938 58.800781 679.164062 58.347656 C 679.121094 57.894531 679.082031 57.441406 679.054688 56.984375 L 679.035156 56.644531 C 679.03125 56.53125 679.027344 56.414062 679.023438 56.300781 L 679.015625 56.128906 L 679.011719 55.960938 C 679.007812 55.847656 679.003906 55.730469 679.003906 55.617188 C 678.996094 55.160156 679 54.707031 679.011719 54.25 C 679.023438 53.796875 679.042969 53.34375 679.070312 52.890625 C 679.097656 52.4375 679.128906 51.984375 679.171875 51.53125 C 679.253906 50.628906 679.363281 49.730469 679.5 48.832031 C 679.765625 47.042969 680.121094 45.269531 680.558594 43.515625 C 680.667969 43.078125 680.78125 42.640625 680.898438 42.203125 C 681.019531 41.769531 681.144531 41.332031 681.269531 40.902344 C 681.527344 40.035156 681.804688 39.171875 682.105469 38.320312 C 682.40625 37.464844 682.726562 36.617188 683.082031 35.78125 C 683.257812 35.363281 683.441406 34.945312 683.640625 34.53125 C 683.691406 34.429688 683.738281 34.324219 683.789062 34.222656 L 683.867188 34.066406 L 683.945312 33.914062 C 683.996094 33.8125 684.054688 33.710938 684.105469 33.605469 L 684.191406 33.453125 L 684.234375 33.378906 L 684.277344 33.300781 C 684.304688 33.25 684.335938 33.199219 684.363281 33.148438 L 684.453125 33 C 684.484375 32.949219 684.515625 32.898438 684.546875 32.847656 C 684.5625 32.824219 684.578125 32.796875 684.59375 32.773438 L 684.640625 32.703125 L 684.6875 32.628906 L 684.726562 32.566406 C 684.757812 32.515625 684.792969 32.464844 684.824219 32.414062 C 684.886719 32.316406 684.953125 32.21875 685.019531 32.121094 C 685.285156 31.738281 685.570312 31.367188 685.871094 31.011719 C 686.171875 30.65625 686.488281 30.316406 686.824219 29.988281 C 687.15625 29.664062 687.507812 29.355469 687.878906 29.0625 C 688.25 28.773438 688.644531 28.503906 689.058594 28.265625 C 689.476562 28.027344 689.914062 27.820312 690.382812 27.667969 C 690.851562 27.511719 691.347656 27.410156 691.859375 27.394531 C 692.113281 27.382812 692.371094 27.398438 692.625 27.433594 C 692.753906 27.453125 692.878906 27.476562 693.003906 27.503906 C 693.039062 27.511719 693.066406 27.519531 693.101562 27.527344 C 693.132812 27.535156 693.164062 27.546875 693.199219 27.554688 C 693.269531 27.578125 693.332031 27.597656 693.394531 27.621094 C 693.648438 27.714844 693.890625 27.84375 694.113281 28.003906 C 694.335938 28.164062 694.535156 28.351562 694.707031 28.550781 C 694.878906 28.753906 695.023438 28.972656 695.144531 29.195312 C 695.269531 29.421875 695.371094 29.648438 695.457031 29.878906 C 695.628906 30.339844 695.738281 30.804688 695.824219 31.265625 C 695.910156 31.730469 695.964844 32.1875 696.007812 32.640625 C 696.050781 33.09375 696.082031 33.546875 696.117188 33.984375 C 696.128906 34.09375 696.136719 34.203125 696.148438 34.308594 L 696.183594 34.636719 L 696.191406 34.71875 L 696.203125 34.796875 C 696.210938 34.851562 696.214844 34.902344 696.222656 34.957031 L 696.246094 35.117188 C 696.253906 35.167969 696.265625 35.222656 696.273438 35.273438 C 696.308594 35.484375 696.347656 35.695312 696.394531 35.90625 C 696.441406 36.113281 696.492188 36.320312 696.550781 36.53125 C 696.664062 36.945312 696.800781 37.351562 696.957031 37.757812 C 697.261719 38.566406 697.640625 39.359375 698.039062 40.152344 L 698.191406 40.445312 L 698.347656 40.742188 L 698.5 41.042969 L 698.65625 41.339844 C 698.859375 41.742188 699.0625 42.140625 699.261719 42.539062 C 699.667969 43.335938 700.070312 44.125 700.503906 44.898438 L 700.664062 45.183594 L 701 45.753906 L 701.085938 45.894531 L 701.175781 46.039062 L 701.21875 46.113281 L 701.242188 46.148438 C 701.25 46.160156 701.257812 46.171875 701.265625 46.1875 L 701.351562 46.34375 C 701.40625 46.441406 701.460938 46.542969 701.515625 46.644531 C 701.625 46.847656 701.726562 47.050781 701.828125 47.257812 C 702.027344 47.675781 702.203125 48.109375 702.347656 48.554688 C 702.492188 49.003906 702.597656 49.46875 702.652344 49.941406 C 702.710938 50.414062 702.714844 50.890625 702.667969 51.363281 C 702.625 51.835938 702.535156 52.296875 702.410156 52.746094 C 702.378906 52.859375 702.34375 52.96875 702.3125 53.082031 L 702.257812 53.246094 L 702.226562 53.332031 C 702.21875 53.363281 702.207031 53.386719 702.195312 53.414062 L 702.132812 53.578125 L 702.066406 53.738281 C 702.046875 53.789062 702.023438 53.84375 702.003906 53.894531 C 701.980469 53.949219 701.957031 54 701.9375 54.054688 C 701.847656 54.261719 701.753906 54.46875 701.65625 54.675781 C 701.558594 54.882812 701.460938 55.085938 701.355469 55.289062 C 700.945312 56.097656 700.484375 56.882812 699.992188 57.636719 C 699.496094 58.394531 698.96875 59.128906 698.417969 59.839844 C 697.867188 60.554688 697.289062 61.246094 696.695312 61.921875 C 696.101562 62.59375 695.488281 63.253906 694.863281 63.894531 C 694.546875 64.21875 694.230469 64.535156 693.910156 64.847656 L 693.671875 65.085938 L 693.425781 65.320312 L 693.179688 65.546875 C 693.136719 65.585938 693.09375 65.625 693.050781 65.660156 L 692.925781 65.773438 C 692.25 66.371094 691.539062 66.929688 690.796875 67.441406 C 690.054688 67.949219 689.285156 68.417969 688.496094 68.847656 C 686.917969 69.707031 685.265625 70.414062 683.59375 71.046875 L 683.566406 70.980469 C 685.226562 70.316406 686.859375 69.585938 688.414062 68.703125 C 689.191406 68.265625 689.949219 67.789062 690.675781 67.273438 C 691.402344 66.753906 692.101562 66.195312 692.761719 65.59375 L 692.882812 65.480469 C 692.925781 65.441406 692.96875 65.40625 693.007812 65.367188 L 693.25 65.136719 L 693.488281 64.902344 L 693.722656 64.664062 C 694.039062 64.347656 694.347656 64.027344 694.65625 63.703125 C 695.273438 63.054688 695.875 62.390625 696.457031 61.714844 C 697.617188 60.359375 698.710938 58.941406 699.671875 57.433594 C 700.148438 56.679688 700.59375 55.90625 700.992188 55.105469 C 701.089844 54.90625 701.1875 54.707031 701.277344 54.503906 C 701.371094 54.300781 701.460938 54.097656 701.546875 53.890625 C 701.632812 53.683594 701.714844 53.476562 701.792969 53.269531 C 701.800781 53.242188 701.8125 53.21875 701.820312 53.191406 L 701.847656 53.113281 C 701.863281 53.0625 701.882812 53.007812 701.898438 52.953125 C 701.929688 52.847656 701.960938 52.742188 701.988281 52.632812 C 702.101562 52.203125 702.183594 51.765625 702.222656 51.324219 C 702.261719 50.882812 702.253906 50.4375 702.195312 49.996094 C 702.140625 49.558594 702.039062 49.125 701.898438 48.703125 C 701.761719 48.28125 701.585938 47.871094 701.390625 47.472656 C 701.292969 47.269531 701.191406 47.074219 701.085938 46.878906 C 701.03125 46.78125 700.976562 46.683594 700.921875 46.585938 L 700.839844 46.441406 C 700.828125 46.417969 700.8125 46.394531 700.796875 46.371094 L 700.753906 46.300781 C 700.511719 45.921875 700.28125 45.535156 700.058594 45.148438 C 699.617188 44.371094 699.203125 43.574219 698.792969 42.78125 C 698.589844 42.382812 698.382812 41.984375 698.179688 41.589844 L 697.867188 40.996094 C 697.761719 40.800781 697.65625 40.601562 697.554688 40.402344 C 697.140625 39.605469 696.75 38.800781 696.425781 37.960938 C 696.261719 37.542969 696.117188 37.117188 695.996094 36.6875 C 695.933594 36.46875 695.878906 36.253906 695.828125 36.035156 C 695.777344 35.816406 695.734375 35.59375 695.695312 35.371094 C 695.65625 35.152344 695.625 34.929688 695.601562 34.707031 L 695.5625 34.371094 C 695.550781 34.261719 695.539062 34.148438 695.527344 34.039062 C 695.488281 33.589844 695.453125 33.144531 695.40625 32.703125 C 695.363281 32.257812 695.308594 31.816406 695.226562 31.378906 C 695.144531 30.941406 695.035156 30.511719 694.878906 30.097656 C 694.722656 29.683594 694.515625 29.289062 694.230469 28.957031 C 694.089844 28.789062 693.929688 28.640625 693.753906 28.511719 C 693.574219 28.386719 693.378906 28.285156 693.175781 28.210938 C 693.125 28.191406 693.070312 28.175781 693.019531 28.160156 L 692.941406 28.136719 C 692.914062 28.132812 692.890625 28.125 692.863281 28.117188 C 692.753906 28.09375 692.648438 28.074219 692.539062 28.058594 C 692.320312 28.027344 692.101562 28.019531 691.878906 28.027344 C 691.441406 28.042969 691.003906 28.132812 690.585938 28.273438 C 690.167969 28.414062 689.765625 28.605469 689.382812 28.824219 C 688.996094 29.046875 688.632812 29.300781 688.28125 29.578125 C 687.933594 29.851562 687.601562 30.148438 687.28125 30.457031 C 686.964844 30.769531 686.664062 31.097656 686.375 31.4375 C 686.089844 31.777344 685.820312 32.132812 685.566406 32.5 C 685.503906 32.589844 685.441406 32.683594 685.382812 32.777344 C 685.351562 32.824219 685.324219 32.871094 685.292969 32.917969 L 685.25 32.988281 L 685.203125 33.058594 C 685.082031 33.246094 684.96875 33.4375 684.859375 33.628906 L 684.820312 33.703125 L 684.777344 33.777344 L 684.699219 33.921875 C 684.648438 34.023438 684.59375 34.121094 684.542969 34.21875 L 684.46875 34.367188 L 684.394531 34.519531 C 684.34375 34.617188 684.296875 34.71875 684.25 34.820312 C 684.058594 35.222656 683.878906 35.628906 683.707031 36.042969 C 683.359375 36.863281 683.046875 37.699219 682.75 38.542969 C 682.457031 39.386719 682.183594 40.238281 681.933594 41.09375 C 681.808594 41.523438 681.683594 41.953125 681.570312 42.382812 C 681.453125 42.816406 681.339844 43.246094 681.234375 43.679688 C 680.808594 45.414062 680.457031 47.167969 680.191406 48.9375 C 680.0625 49.820312 679.957031 50.707031 679.875 51.59375 C 679.832031 52.039062 679.800781 52.484375 679.773438 52.929688 C 679.746094 53.375 679.730469 53.820312 679.71875 54.269531 C 679.707031 54.714844 679.703125 55.160156 679.710938 55.605469 C 679.71875 56.050781 679.734375 56.5 679.757812 56.941406 C 679.785156 57.386719 679.824219 57.832031 679.867188 58.277344 C 679.910156 58.722656 679.964844 59.164062 680.023438 59.605469 C 680.265625 61.375 680.628906 63.128906 681.082031 64.855469 C 681.539062 66.582031 682.089844 68.28125 682.699219 69.960938 C 682.738281 70.066406 682.777344 70.171875 682.816406 70.273438 L 682.875 70.433594 L 682.890625 70.472656 C 682.894531 70.484375 682.898438 70.496094 682.90625 70.515625 C 682.910156 70.53125 682.914062 70.546875 682.917969 70.566406 C 682.917969 70.589844 682.921875 70.613281 682.910156 70.640625 C 682.898438 70.671875 682.871094 70.699219 682.84375 70.710938 C 682.816406 70.71875 682.792969 70.722656 682.773438 70.722656 C 682.734375 70.71875 682.703125 70.710938 682.675781 70.703125 C 682.613281 70.6875 682.5625 70.664062 682.507812 70.640625 C 682.402344 70.59375 682.304688 70.535156 682.207031 70.480469 C 682.011719 70.363281 681.824219 70.238281 681.640625 70.109375 C 681.457031 69.984375 681.273438 69.851562 681.09375 69.714844 C 680.734375 69.449219 680.382812 69.167969 680.039062 68.886719 C 679.691406 68.601562 679.347656 68.316406 679.011719 68.023438 C 678.332031 67.433594 677.671875 66.832031 677.019531 66.21875 C 676.371094 65.601562 675.730469 64.976562 675.105469 64.335938 C 673.855469 63.054688 672.648438 61.730469 671.5 60.359375 C 670.347656 58.988281 669.253906 57.566406 668.234375 56.097656 C 667.210938 54.625 666.265625 53.101562 665.433594 51.515625 C 665.015625 50.722656 664.625 49.914062 664.273438 49.09375 C 663.917969 48.269531 663.601562 47.429688 663.328125 46.574219 C 663.058594 45.722656 662.832031 44.851562 662.667969 43.96875 C 662.585938 43.53125 662.515625 43.085938 662.464844 42.640625 C 662.441406 42.417969 662.417969 42.195312 662.402344 41.972656 C 662.382812 41.75 662.371094 41.523438 662.363281 41.300781 C 662.351562 40.851562 662.363281 40.402344 662.382812 39.953125 C 662.40625 39.507812 662.441406 39.058594 662.488281 38.613281 C 662.582031 37.722656 662.722656 36.835938 662.921875 35.960938 C 663.121094 35.089844 663.382812 34.226562 663.734375 33.398438 C 663.910156 32.984375 664.113281 32.582031 664.34375 32.195312 C 664.578125 31.8125 664.84375 31.445312 665.144531 31.113281 C 665.449219 30.777344 665.796875 30.480469 666.179688 30.242188 C 666.277344 30.179688 666.375 30.125 666.472656 30.074219 C 666.5 30.058594 666.523438 30.046875 666.550781 30.035156 C 666.574219 30.023438 666.601562 30.011719 666.628906 30 L 666.667969 29.980469 L 666.707031 29.964844 C 666.71875 29.960938 666.734375 29.953125 666.746094 29.949219 L 666.789062 29.933594 C 666.898438 29.898438 667.011719 29.871094 667.125 29.859375 C 667.242188 29.851562 667.359375 29.851562 667.472656 29.871094 C 667.585938 29.886719 667.699219 29.917969 667.804688 29.960938 C 667.914062 30 668.015625 30.054688 668.113281 30.113281 C 668.308594 30.230469 668.484375 30.378906 668.644531 30.539062 C 668.804688 30.695312 668.953125 30.871094 669.089844 31.050781 C 669.226562 31.230469 669.351562 31.414062 669.46875 31.605469 C 669.589844 31.796875 669.703125 31.992188 669.808594 32.1875 C 669.863281 32.285156 669.914062 32.386719 669.964844 32.484375 L 670.042969 32.636719 L 670.058594 32.675781 C 670.066406 32.6875 670.070312 32.699219 670.078125 32.714844 L 670.109375 32.792969 C 670.289062 33.199219 670.472656 33.605469 670.691406 33.996094 C 670.90625 34.382812 671.152344 34.753906 671.457031 35.078125 C 671.609375 35.238281 671.773438 35.386719 671.949219 35.519531 C 672.128906 35.652344 672.320312 35.765625 672.519531 35.859375 C 672.71875 35.953125 672.925781 36.027344 673.140625 36.085938 L 673.222656 36.105469 L 673.300781 36.125 L 673.628906 36.195312 L 673.792969 36.238281 C 673.847656 36.25 673.902344 36.265625 673.957031 36.277344 C 674.011719 36.292969 674.066406 36.308594 674.117188 36.324219 L 674.28125 36.371094 L 674.441406 36.421875 C 674.652344 36.496094 674.863281 36.570312 675.070312 36.65625 C 675.484375 36.832031 675.886719 37.035156 676.265625 37.277344 C 676.648438 37.515625 677.007812 37.789062 677.339844 38.09375 C 678.003906 38.699219 678.554688 39.425781 678.960938 40.226562 C 679.058594 40.429688 679.152344 40.632812 679.234375 40.84375 C 679.273438 40.949219 679.3125 41.054688 679.347656 41.160156 C 679.382812 41.269531 679.414062 41.375 679.445312 41.484375 C 679.503906 41.699219 679.550781 41.921875 679.582031 42.144531 C 679.613281 42.367188 679.628906 42.59375 679.609375 42.820312 Z M 679.539062 42.816406 " fill-opacity="1" fill-rule="nonzero"/></g><g fill="#ab5c72" fill-opacity="1"><g transform="translate(19.418227, 118.601819)"><g><path d="M 1.953125 0 L 1.953125 -0.703125 L 4.890625 -0.703125 C 5.921875 -0.703125 6.769531 -0.957031 7.4375 -1.46875 C 8.113281 -1.976562 8.453125 -3.234375 8.453125 -5.234375 L 8.453125 -44.9375 C 8.453125 -46.800781 8.101562 -47.976562 7.40625 -48.46875 C 6.707031 -48.957031 5.867188 -49.203125 4.890625 -49.203125 L 1.953125 -49.203125 L 1.953125 -49.90625 L 23.40625 -49.90625 C 29.882812 -49.90625 34.6875 -48.578125 37.8125 -45.921875 C 40.9375 -43.265625 42.5 -39.648438 42.5 -35.078125 C 42.5 -32.285156 41.820312 -29.675781 40.46875 -27.25 C 39.113281 -24.832031 36.929688 -22.863281 33.921875 -21.34375 C 30.921875 -19.832031 26.90625 -19.078125 21.875 -19.078125 L 19.5 -19.078125 L 19.5 -4.890625 C 19.5 -3.023438 19.867188 -1.859375 20.609375 -1.390625 C 21.359375 -0.929688 22.222656 -0.703125 23.203125 -0.703125 L 27.46875 -0.703125 L 27.46875 0 Z M 19.5 -19.78125 L 21.171875 -19.78125 C 24.617188 -19.78125 27.078125 -20.910156 28.546875 -23.171875 C 30.015625 -25.429688 30.75 -29.21875 30.75 -34.53125 C 30.75 -39.789062 30.097656 -43.550781 28.796875 -45.8125 C 27.492188 -48.070312 25.300781 -49.203125 22.21875 -49.203125 L 19.5 -49.203125 Z M 19.5 -19.78125 "/></g></g></g><g fill="#ab5c72" fill-opacity="1"><g transform="translate(64.009127, 118.601819)"><g><path d="M 0.28125 0 L 0.28125 -0.703125 L 3.140625 -0.703125 C 4.453125 -0.703125 5.488281 -1.070312 6.25 -1.8125 C 7.019531 -2.5625 7.753906 -3.890625 8.453125 -5.796875 L 24.59375 -49.90625 L 31.453125 -49.90625 L 47.109375 -5.734375 C 47.804688 -3.816406 48.539062 -2.5 49.3125 -1.78125 C 50.082031 -1.0625 51.117188 -0.703125 52.421875 -0.703125 L 52.625 -0.703125 L 52.625 0 L 29.5625 0 L 29.5625 -0.703125 L 33.34375 -0.703125 C 35.476562 -0.703125 36.546875 -1.445312 36.546875 -2.9375 C 36.546875 -3.675781 36.289062 -4.863281 35.78125 -6.5 L 31.796875 -18.234375 L 13.765625 -18.234375 L 9.78125 -7.40625 C 9.40625 -6.476562 9.125 -5.648438 8.9375 -4.921875 C 8.757812 -4.203125 8.671875 -3.585938 8.671875 -3.078125 C 8.671875 -2.191406 8.945312 -1.570312 9.5 -1.21875 C 10.0625 -0.875 10.925781 -0.703125 12.09375 -0.703125 L 17.046875 -0.703125 L 17.046875 0 Z M 14.046875 -18.9375 L 31.59375 -18.9375 L 27.25 -32.015625 C 26.882812 -33.128906 26.457031 -34.46875 25.96875 -36.03125 C 25.476562 -37.59375 25.007812 -39.175781 24.5625 -40.78125 C 24.125 -42.382812 23.765625 -43.769531 23.484375 -44.9375 C 23.109375 -43.820312 22.648438 -42.503906 22.109375 -40.984375 C 21.578125 -39.472656 21.03125 -37.957031 20.46875 -36.4375 C 19.914062 -34.925781 19.429688 -33.613281 19.015625 -32.5 Z M 14.046875 -18.9375 "/></g></g></g><g fill="#ab5c72" fill-opacity="1"><g transform="translate(116.637568, 118.601819)"><g><path d="M 1.953125 0 L 1.953125 -0.703125 L 6.296875 -0.703125 C 7.273438 -0.703125 8.113281 -0.957031 8.8125 -1.46875 C 9.507812 -1.976562 9.859375 -3.234375 9.859375 -5.234375 L 9.859375 -44.9375 C 9.859375 -46.800781 9.492188 -47.976562 8.765625 -48.46875 C 8.046875 -48.957031 7.222656 -49.203125 6.296875 -49.203125 L 1.953125 -49.203125 L 1.953125 -49.90625 L 19.703125 -49.90625 L 44.453125 -12.234375 L 44.453125 -44.9375 C 44.453125 -46.800781 44.085938 -47.976562 43.359375 -48.46875 C 42.640625 -48.957031 41.816406 -49.203125 40.890625 -49.203125 L 35.640625 -49.203125 L 35.640625 -49.90625 L 53.890625 -49.90625 L 53.890625 -49.203125 L 48.71875 -49.203125 C 47.738281 -49.203125 46.898438 -48.945312 46.203125 -48.4375 C 45.503906 -47.925781 45.15625 -46.664062 45.15625 -44.65625 L 45.15625 0 L 40.953125 0 L 10.546875 -46.265625 L 10.546875 -5.234375 C 10.546875 -3.234375 10.894531 -1.976562 11.59375 -1.46875 C 12.300781 -0.957031 13.144531 -0.703125 14.125 -0.703125 L 20.203125 -0.703125 L 20.203125 0 Z M 1.953125 0 "/></g></g></g><g fill="#ab5c72" fill-opacity="1"><g transform="translate(171.712218, 118.601819)"><g><path d="M 1.953125 0 L 1.953125 -0.703125 L 7.0625 -0.703125 C 8.039062 -0.703125 8.878906 -0.929688 9.578125 -1.390625 C 10.273438 -1.859375 10.625 -3.023438 10.625 -4.890625 L 10.625 -44.9375 C 10.625 -46.800781 10.273438 -47.976562 9.578125 -48.46875 C 8.878906 -48.957031 8.039062 -49.203125 7.0625 -49.203125 L 1.953125 -49.203125 L 1.953125 -49.90625 L 21.03125 -49.90625 L 35.5 -11.8125 L 47.390625 -49.90625 L 64.578125 -49.90625 L 64.578125 -49.203125 L 61.640625 -49.203125 C 60.617188 -49.203125 59.769531 -48.945312 59.09375 -48.4375 C 58.414062 -47.925781 58.078125 -46.664062 58.078125 -44.65625 L 58.078125 -5.234375 C 58.078125 -3.234375 58.414062 -1.976562 59.09375 -1.46875 C 59.769531 -0.957031 60.617188 -0.703125 61.640625 -0.703125 L 64.578125 -0.703125 L 64.578125 0 L 42.21875 0 L 42.21875 -0.703125 L 42.90625 -0.703125 C 44.40625 -0.703125 45.515625 -0.921875 46.234375 -1.359375 C 46.953125 -1.804688 47.3125 -2.890625 47.3125 -4.609375 L 47.3125 -47.3125 L 32.5 0 L 29.140625 0 L 11.328125 -46.96875 L 11.328125 -5.234375 C 11.328125 -3.234375 11.78125 -1.976562 12.6875 -1.46875 C 13.59375 -0.957031 14.863281 -0.703125 16.5 -0.703125 L 19.296875 -0.703125 L 19.296875 0 Z M 1.953125 0 "/></g></g></g><g fill="#ab5c72" fill-opacity="1"><g transform="translate(238.249122, 118.601819)"><g><path d="M 1.953125 0 L 1.953125 -0.703125 L 4.890625 -0.703125 C 5.867188 -0.703125 6.707031 -0.929688 7.40625 -1.390625 C 8.101562 -1.859375 8.453125 -3.023438 8.453125 -4.890625 L 8.453125 -44.65625 C 8.453125 -46.664062 8.113281 -47.925781 7.4375 -48.4375 C 6.769531 -48.945312 5.921875 -49.203125 4.890625 -49.203125 L 1.953125 -49.203125 L 1.953125 -49.90625 L 40.609375 -49.90625 L 41.03125 -37.046875 L 40.328125 -37.046875 L 40.125 -39.421875 C 39.789062 -42.960938 38.773438 -45.476562 37.078125 -46.96875 C 35.378906 -48.457031 32.664062 -49.203125 28.9375 -49.203125 L 19.5625 -49.203125 L 19.5625 -26.421875 L 36.140625 -26.421875 L 36.140625 -25.71875 L 19.5625 -25.71875 L 19.5625 -0.703125 L 31.3125 -0.703125 C 35.039062 -0.703125 37.753906 -1.445312 39.453125 -2.9375 C 41.148438 -4.425781 42.164062 -6.960938 42.5 -10.546875 L 42.703125 -12.859375 L 43.40625 -12.859375 L 42.90625 0 Z M 1.953125 0 "/></g></g></g><g fill="#ab5c72" fill-opacity="1"><g transform="translate(283.8884, 118.601819)"><g><path d="M 1.953125 0 L 1.953125 -0.703125 L 4.890625 -0.703125 C 5.921875 -0.703125 6.769531 -0.957031 7.4375 -1.46875 C 8.113281 -1.976562 8.453125 -3.234375 8.453125 -5.234375 L 8.453125 -44.65625 C 8.453125 -46.664062 8.113281 -47.925781 7.4375 -48.4375 C 6.769531 -48.945312 5.921875 -49.203125 4.890625 -49.203125 L 1.953125 -49.203125 L 1.953125 -49.90625 L 26.0625 -49.90625 L 26.0625 -49.203125 L 23.140625 -49.203125 C 22.160156 -49.203125 21.316406 -48.957031 20.609375 -48.46875 C 19.910156 -47.976562 19.5625 -46.800781 19.5625 -44.9375 L 19.5625 -0.703125 L 29.84375 -0.703125 C 34.082031 -0.703125 37.164062 -1.5625 39.09375 -3.28125 C 41.03125 -5.007812 42.140625 -7.875 42.421875 -11.875 L 42.703125 -15.578125 L 43.40625 -15.578125 L 42.84375 0 Z M 1.953125 0 "/></g></g></g><g fill="#ab5c72" fill-opacity="1"><g transform="translate(329.597576, 118.601819)"><g><path d="M 0.28125 0 L 0.28125 -0.703125 L 3.140625 -0.703125 C 4.453125 -0.703125 5.488281 -1.070312 6.25 -1.8125 C 7.019531 -2.5625 7.753906 -3.890625 8.453125 -5.796875 L 24.59375 -49.90625 L 31.453125 -49.90625 L 47.109375 -5.734375 C 47.804688 -3.816406 48.539062 -2.5 49.3125 -1.78125 C 50.082031 -1.0625 51.117188 -0.703125 52.421875 -0.703125 L 52.625 -0.703125 L 52.625 0 L 29.5625 0 L 29.5625 -0.703125 L 33.34375 -0.703125 C 35.476562 -0.703125 36.546875 -1.445312 36.546875 -2.9375 C 36.546875 -3.675781 36.289062 -4.863281 35.78125 -6.5 L 31.796875 -18.234375 L 13.765625 -18.234375 L 9.78125 -7.40625 C 9.40625 -6.476562 9.125 -5.648438 8.9375 -4.921875 C 8.757812 -4.203125 8.671875 -3.585938 8.671875 -3.078125 C 8.671875 -2.191406 8.945312 -1.570312 9.5 -1.21875 C 10.0625 -0.875 10.925781 -0.703125 12.09375 -0.703125 L 17.046875 -0.703125 L 17.046875 0 Z M 14.046875 -18.9375 L 31.59375 -18.9375 L 27.25 -32.015625 C 26.882812 -33.128906 26.457031 -34.46875 25.96875 -36.03125 C 25.476562 -37.59375 25.007812 -39.175781 24.5625 -40.78125 C 24.125 -42.382812 23.765625 -43.769531 23.484375 -44.9375 C 23.109375 -43.820312 22.648438 -42.503906 22.109375 -40.984375 C 21.578125 -39.472656 21.03125 -37.957031 20.46875 -36.4375 C 19.914062 -34.925781 19.429688 -33.613281 19.015625 -32.5 Z M 14.046875 -18.9375 "/></g></g></g><g fill="#ab5c72" fill-opacity="1"><g transform="translate(382.226028, 118.601819)"><g/></g></g><g fill="#ab5c72" fill-opacity="1"><g transform="translate(397.95167, 118.601819)"><g><path d="M 1.953125 0 L 1.953125 -0.703125 L 4.828125 -0.703125 C 5.847656 -0.703125 6.707031 -0.957031 7.40625 -1.46875 C 8.101562 -1.976562 8.453125 -3.234375 8.453125 -5.234375 L 8.453125 -44.734375 C 8.453125 -46.597656 8.09375 -47.804688 7.375 -48.359375 C 6.65625 -48.921875 5.804688 -49.203125 4.828125 -49.203125 L 1.953125 -49.203125 L 1.953125 -49.90625 L 22.359375 -49.90625 C 28.984375 -49.90625 33.972656 -48.851562 37.328125 -46.75 C 40.679688 -44.65625 42.359375 -41.601562 42.359375 -37.59375 C 42.359375 -34.007812 41.0625 -31.332031 38.46875 -29.5625 C 35.882812 -27.789062 32.144531 -26.765625 27.25 -26.484375 L 27.25 -26.34375 C 32.75 -26.25 36.988281 -25.128906 39.96875 -22.984375 C 42.957031 -20.847656 44.453125 -17.660156 44.453125 -13.421875 C 44.453125 -4.472656 37.789062 0 24.46875 0 Z M 19.5 -26.484375 L 22.15625 -26.484375 C 25.1875 -26.484375 27.351562 -27.359375 28.65625 -29.109375 C 29.957031 -30.859375 30.609375 -33.78125 30.609375 -37.875 C 30.609375 -41.976562 29.957031 -44.890625 28.65625 -46.609375 C 27.351562 -48.335938 25.140625 -49.203125 22.015625 -49.203125 L 19.5 -49.203125 Z M 19.5 -0.703125 L 24.109375 -0.703125 C 27.234375 -0.703125 29.445312 -1.65625 30.75 -3.5625 C 32.050781 -5.476562 32.703125 -8.71875 32.703125 -13.28125 C 32.703125 -17.800781 32.050781 -21.015625 30.75 -22.921875 C 29.445312 -24.835938 27.28125 -25.796875 24.25 -25.796875 L 19.5 -25.796875 Z M 19.5 -0.703125 "/></g></g></g><g fill="#ab5c72" fill-opacity="1"><g transform="translate(444.918905, 118.601819)"><g><path d="M 1.953125 0 L 1.953125 -0.703125 L 4.890625 -0.703125 C 5.867188 -0.703125 6.707031 -0.929688 7.40625 -1.390625 C 8.101562 -1.859375 8.453125 -3.023438 8.453125 -4.890625 L 8.453125 -44.65625 C 8.453125 -46.664062 8.113281 -47.925781 7.4375 -48.4375 C 6.769531 -48.945312 5.921875 -49.203125 4.890625 -49.203125 L 1.953125 -49.203125 L 1.953125 -49.90625 L 40.609375 -49.90625 L 41.03125 -37.046875 L 40.328125 -37.046875 L 40.125 -39.421875 C 39.789062 -42.960938 38.773438 -45.476562 37.078125 -46.96875 C 35.378906 -48.457031 32.664062 -49.203125 28.9375 -49.203125 L 19.5625 -49.203125 L 19.5625 -26.421875 L 36.140625 -26.421875 L 36.140625 -25.71875 L 19.5625 -25.71875 L 19.5625 -0.703125 L 31.3125 -0.703125 C 35.039062 -0.703125 37.753906 -1.445312 39.453125 -2.9375 C 41.148438 -4.425781 42.164062 -6.960938 42.5 -10.546875 L 42.703125 -12.859375 L 43.40625 -12.859375 L 42.90625 0 Z M 1.953125 0 "/></g></g></g><g fill="#ab5c72" fill-opacity="1"><g transform="translate(490.558183, 118.601819)"><g><path d="M 0.28125 0 L 0.28125 -0.703125 L 3.140625 -0.703125 C 4.453125 -0.703125 5.488281 -1.070312 6.25 -1.8125 C 7.019531 -2.5625 7.753906 -3.890625 8.453125 -5.796875 L 24.59375 -49.90625 L 31.453125 -49.90625 L 47.109375 -5.734375 C 47.804688 -3.816406 48.539062 -2.5 49.3125 -1.78125 C 50.082031 -1.0625 51.117188 -0.703125 52.421875 -0.703125 L 52.625 -0.703125 L 52.625 0 L 29.5625 0 L 29.5625 -0.703125 L 33.34375 -0.703125 C 35.476562 -0.703125 36.546875 -1.445312 36.546875 -2.9375 C 36.546875 -3.675781 36.289062 -4.863281 35.78125 -6.5 L 31.796875 -18.234375 L 13.765625 -18.234375 L 9.78125 -7.40625 C 9.40625 -6.476562 9.125 -5.648438 8.9375 -4.921875 C 8.757812 -4.203125 8.671875 -3.585938 8.671875 -3.078125 C 8.671875 -2.191406 8.945312 -1.570312 9.5 -1.21875 C 10.0625 -0.875 10.925781 -0.703125 12.09375 -0.703125 L 17.046875 -0.703125 L 17.046875 0 Z M 14.046875 -18.9375 L 31.59375 -18.9375 L 27.25 -32.015625 C 26.882812 -33.128906 26.457031 -34.46875 25.96875 -36.03125 C 25.476562 -37.59375 25.007812 -39.175781 24.5625 -40.78125 C 24.125 -42.382812 23.765625 -43.769531 23.484375 -44.9375 C 23.109375 -43.820312 22.648438 -42.503906 22.109375 -40.984375 C 21.578125 -39.472656 21.03125 -37.957031 20.46875 -36.4375 C 19.914062 -34.925781 19.429688 -33.613281 19.015625 -32.5 Z M 14.046875 -18.9375 "/></g></g></g><g fill="#ab5c72" fill-opacity="1"><g transform="translate(543.186635, 118.601819)"><g><path d="M 27.046875 0.703125 C 20.941406 0.703125 16.1875 -0.519531 12.78125 -2.96875 C 9.382812 -5.414062 7.6875 -9.503906 7.6875 -15.234375 L 7.6875 -44.9375 C 7.6875 -46.800781 7.320312 -47.976562 6.59375 -48.46875 C 5.875 -48.957031 5.050781 -49.203125 4.125 -49.203125 L 1.125 -49.203125 L 1.125 -49.90625 L 25.234375 -49.90625 L 25.234375 -49.203125 L 22.296875 -49.203125 C 21.316406 -49.203125 20.476562 -48.945312 19.78125 -48.4375 C 19.082031 -47.925781 18.734375 -46.664062 18.734375 -44.65625 L 18.734375 -10.765625 C 18.734375 -6.847656 19.675781 -4.128906 21.5625 -2.609375 C 23.445312 -1.097656 25.972656 -0.34375 29.140625 -0.34375 C 33.566406 -0.34375 37.003906 -1.585938 39.453125 -4.078125 C 41.898438 -6.578125 43.125 -10.015625 43.125 -14.390625 L 43.125 -44.9375 C 43.125 -46.800781 42.773438 -47.976562 42.078125 -48.46875 C 41.378906 -48.957031 40.539062 -49.203125 39.5625 -49.203125 L 35.21875 -49.203125 L 35.21875 -49.90625 L 51.09375 -49.90625 L 51.09375 -49.203125 L 47.390625 -49.203125 C 46.410156 -49.203125 45.570312 -48.945312 44.875 -48.4375 C 44.175781 -47.925781 43.828125 -46.664062 43.828125 -44.65625 L 43.828125 -14.390625 C 43.828125 -9.410156 42.378906 -5.648438 39.484375 -3.109375 C 36.597656 -0.566406 32.453125 0.703125 27.046875 0.703125 Z M 27.046875 0.703125 "/></g></g></g><g fill="#ab5c72" fill-opacity="1"><g transform="translate(595.395704, 118.601819)"><g><path d="M 10.765625 0 L 10.765625 -0.703125 L 13.703125 -0.703125 C 14.722656 -0.703125 15.570312 -0.957031 16.25 -1.46875 C 16.925781 -1.976562 17.265625 -3.234375 17.265625 -5.234375 L 17.265625 -49.203125 L 12.796875 -49.203125 C 9.015625 -49.203125 6.257812 -48.457031 4.53125 -46.96875 C 2.8125 -45.476562 1.835938 -42.960938 1.609375 -39.421875 L 1.390625 -36.34375 L 0.703125 -36.34375 L 1.1875 -49.90625 L 44.453125 -49.90625 L 44.9375 -36.34375 L 44.234375 -36.34375 L 44.03125 -39.421875 C 43.800781 -42.960938 42.820312 -45.476562 41.09375 -46.96875 C 39.375 -48.457031 36.625 -49.203125 32.84375 -49.203125 L 28.375 -49.203125 L 28.375 -5.234375 C 28.375 -3.234375 28.710938 -1.976562 29.390625 -1.46875 C 30.066406 -0.957031 30.914062 -0.703125 31.9375 -0.703125 L 34.875 -0.703125 L 34.875 0 Z M 10.765625 0 "/></g></g></g><g fill="#ab5c72" fill-opacity="1"><g transform="translate(641.034982, 118.601819)"><g><path d="M 11.46875 0 L 11.46875 -0.703125 L 14.75 -0.703125 C 15.863281 -0.703125 16.816406 -0.910156 17.609375 -1.328125 C 18.398438 -1.742188 18.796875 -2.957031 18.796875 -4.96875 L 18.796875 -19.21875 L 4.96875 -45.5 C 4.21875 -46.894531 3.550781 -47.859375 2.96875 -48.390625 C 2.382812 -48.929688 1.675781 -49.203125 0.84375 -49.203125 L 0 -49.203125 L 0 -49.90625 L 23.40625 -49.90625 L 23.40625 -49.203125 L 21.3125 -49.203125 C 19.726562 -49.203125 18.5625 -49.015625 17.8125 -48.640625 C 17.070312 -48.265625 16.703125 -47.632812 16.703125 -46.75 C 16.703125 -45.6875 17.191406 -44.175781 18.171875 -42.21875 L 25.296875 -28.234375 C 26.085938 -26.691406 26.8125 -25.300781 27.46875 -24.0625 C 28.125 -22.832031 28.800781 -21.472656 29.5 -19.984375 C 30.238281 -21.753906 30.992188 -23.488281 31.765625 -25.1875 C 32.535156 -26.894531 33.289062 -28.539062 34.03125 -30.125 L 39.28125 -41.515625 C 39.75 -42.585938 40.117188 -43.519531 40.390625 -44.3125 C 40.671875 -45.101562 40.8125 -45.800781 40.8125 -46.40625 C 40.8125 -47.425781 40.40625 -48.144531 39.59375 -48.5625 C 38.78125 -48.988281 37.507812 -49.203125 35.78125 -49.203125 L 30.828125 -49.203125 L 30.828125 -49.90625 L 48.4375 -49.90625 L 48.4375 -49.203125 L 46.40625 -49.203125 C 45.382812 -49.203125 44.488281 -48.804688 43.71875 -48.015625 C 42.945312 -47.222656 42.070312 -45.78125 41.09375 -43.6875 L 29.90625 -19.421875 L 29.90625 -5.03125 C 29.90625 -2.976562 30.289062 -1.742188 31.0625 -1.328125 C 31.832031 -0.910156 32.753906 -0.703125 33.828125 -0.703125 L 37.25 -0.703125 L 37.25 0 Z M 11.46875 0 "/></g></g></g></svg>